<svg xmlns="http://www.w3.org/2000/svg" viewBox="0 0 1951.1 1455.41"><defs><style>.cls-1{fill:#bc002d;}.cls-2{fill:#fff;}</style></defs><g id="レイヤー_2" data-name="レイヤー 2"><g id="レイヤー_1-2" data-name="レイヤー 1"><circle class="cls-1" cx="975.55" cy="512" r="512"/><circle class="cls-2" cx="975.55" cy="352" r="160"/><path class="cls-2" d="M1135.55,488h0a210,210,0,0,1-320,0h0a209.15,209.15,0,0,1-46.19-96c0,75,46.47,96.35,46.19,268v12a160,160,0,0,0,320,0V660c-.28-171.65,46.2-193,46.2-268A209.26,209.26,0,0,1,1135.55,488Z"/><path class="cls-1" d="M2.49,1224.41q-.84-26.72-2.49-53.65,7,.83,15.33,1.45t18.65.62q10.35,0,18.64-.62T68,1170.76q-1.67,26.94-2.48,53.65t-.83,61.12v56.35q0,34.39.83,61.11T68,1455.41a130.1,130.1,0,0,0-15.33-.83H15.33a129.86,129.86,0,0,0-15.33.83q1.65-25.7,2.49-52.42t.82-61.11v-56.35Q3.31,1251.13,2.49,1224.41Z"/><path class="cls-1" d="M183.13,1396.16q18.65-29.84,38.12-62.57T260,1267.3q19.27-33.57,36.26-64.64l-.42-.83q-32.31,0-65.46.42t-64.22,3.31q.82-4.56,1.45-8.7a61.35,61.35,0,0,0,0-17.4q-.63-4.14-1.45-8.7,19,0,33.77.41t27.76.62q13,.21,25.68.62t27.14.42q12.84,0,23.83-.21l22.58-.41q11.59-.21,24.86-.63t30.66-.82v7.45q-39,62.16-74.58,123.06T237,1424.75v.82q32.31,0,54.69-.2t38.95-.62q16.56-.42,28.38-1t23-1.45a83.88,83.88,0,0,1-1.25,8.7,44.6,44.6,0,0,0-.82,8.7,41.49,41.49,0,0,0,.82,8.5q.83,3.93,1.25,7.25-26.11-.84-50.35-.83H278.43q-50.13,0-83.69.2t-45.58.63v-5.8Q164.49,1426,183.13,1396.16Z"/><path class="cls-1" d="M709.34,1455.41q-9.95-.84-18.85-.83H655.27q-8.91,0-17.61.83Q631,1435.12,624,1414t-14.92-42.26q-13.26-.4-26.52-.62t-26.51-.21q-10.78,0-21.55.21t-21.54.62q-8.3,21.13-15.34,42.26t-12.84,41.44a58.33,58.33,0,0,0-9.74-.83H455.35a75.33,75.33,0,0,0-10.77.83q5-10.77,13.26-29.84t18.23-43.09q9.94-24,21.34-51.58t22.79-55.73q11.38-28.17,22.37-55.52t20.1-51c2.75.56,5.38,1,7.87,1.45a49.47,49.47,0,0,0,15.74,0c2.49-.41,5.11-.89,7.88-1.45q13.25,35.23,28.38,75.41T653,1323q15.33,38.76,29.83,73.55T709.34,1455.41ZM562.67,1248.65q-10.78,24.87-20.31,49.1t-18.64,49.51h75.82q-9.12-25.26-18-49.51T562.67,1248.65Z"/><path class="cls-1" d="M797.18,1253.21q0-28.59-.83-48.06t-1.24-34.39a85,85,0,0,0,37.29,0q45.15,50.13,89.29,98.61t90.53,98.61v-76.24q0-20.29-.21-40t-.41-36.26q-.21-16.56-.83-28.58a138.18,138.18,0,0,0-1.45-16.16,85,85,0,0,0,37.29,0q-2.08,37.71-3.32,68.15t-2.07,57.39q-.83,26.94-1,53.24t-.21,56.15v49.72a168.56,168.56,0,0,0-17-.83,138.1,138.1,0,0,0-16.16.83Q921.48,1356,825.77,1255.28q-.42,12-.62,24t-.21,24.45v48.06q0,24.87.21,42.26t.62,29.42q.4,12,.83,19.68t.82,12.23a59.53,59.53,0,0,0-9.94-.83H808q-9.54,0-19.06.83.83-3.32,2.07-23.62t2.7-49.51q1.44-29.22,2.48-63.4T797.18,1253.21Z"/><path class="cls-1" d="M1390.92,1455.41q-9.93-.84-18.85-.83h-35.22q-8.91,0-17.61.83-6.63-20.29-13.67-41.44t-14.92-42.26q-13.26-.4-26.51-.62t-26.52-.21q-10.78,0-21.55.21t-21.54.62q-8.29,21.13-15.33,42.26t-12.85,41.44a58.3,58.3,0,0,0-9.73-.83h-19.69a75.44,75.44,0,0,0-10.77.83q5-10.77,13.26-29.84t18.23-43.09q9.94-24,21.34-51.58t22.79-55.73q11.38-28.17,22.37-55.52t20.1-51c2.76.56,5.39,1,7.87,1.45a49.53,49.53,0,0,0,15.75,0q3.72-.62,7.87-1.45,13.24,35.23,28.38,75.41t30.45,78.93q15.33,38.76,29.84,73.55T1390.92,1455.41Zm-146.67-206.76q-10.79,24.87-20.3,49.1t-18.65,49.51h75.83q-9.12-25.26-18-49.51T1244.25,1248.65Z"/><path class="cls-1" d="M1498.23,1362.59l-6.63,92.82a59.44,59.44,0,0,0-9.94-.83H1462.4a58.33,58.33,0,0,0-9.74.83q13.24-71.27,23.61-141.71t19.06-142.94q4.56.83,8.5,1.45a55,55,0,0,0,8.49.62,53.63,53.63,0,0,0,7.87-.62q4.14-.63,8.71-1.45,11.17,24.85,23.41,50.55t24.44,51.17Q1589,1298,1601.2,1322.4t23.41,46.41q24.86-46.39,49.51-97.16t47-100.89a92.87,92.87,0,0,0,17.82,2.07,91.63,91.63,0,0,0,17.4-2.07q4.14,35.64,8.91,76.65t9.32,80.17q4.56,39.17,9.11,73.13t8.29,54.7a166.41,166.41,0,0,0-16.78-.83h-33.77q-8.7,0-17.4.83-2.08-42.67-6.84-92.4t-9.73-98.61h-.83q-23.62,48.88-46.41,96.12t-45.16,94.89c-1.39-.28-2.69-.49-3.94-.63a38.81,38.81,0,0,0-7.87,0c-1.24.14-2.56.35-3.94.63q-22.36-46.41-44.54-92.82t-45.78-94h-.83Q1501.55,1316.2,1498.23,1362.59Z"/><path class="cls-1" d="M1885.64,1224.41q-.84-26.72-2.49-53.65,7,.83,15.33,1.45t18.65.62q10.35,0,18.64-.62c5.53-.42,10.63-.9,15.33-1.45q-1.65,26.94-2.48,53.65t-.83,61.12v56.35q0,34.39.83,61.11t2.48,52.42a130,130,0,0,0-15.33-.83h-37.29a129.86,129.86,0,0,0-15.33.83q1.65-25.7,2.49-52.42t.83-61.11v-56.35Q1886.47,1251.13,1885.64,1224.41Z"/></g></g></svg>